<?xml version="1.0" encoding="UTF-8"?>
<svg width="1080px" height="1080px" viewBox="0 0 1080 1080" version="1.1" xmlns="http://www.w3.org/2000/svg" xmlns:xlink="http://www.w3.org/1999/xlink">
    <title>Post Square@1,000x</title>
    <g id="Post-Square" stroke="none" stroke-width="1" fill="none" fill-rule="evenodd">
        <rect fill="#FFFFFF" x="0" y="0" width="1080" height="1080"></rect>
        <path d="M607.584225,431.011484 L781.631438,1091.52066 C784.445957,1102.20176 778.068834,1113.14211 767.387736,1115.95663 C765.724478,1116.39491 764.011631,1116.61679 762.291599,1116.61679 L414.197173,1116.61679 C403.151478,1116.61679 394.197173,1107.66249 394.197173,1096.61679 C394.197173,1094.89676 394.419058,1093.18391 394.857334,1091.52066 L568.904547,431.011484 C571.719065,420.330386 582.659424,413.953263 593.340523,416.767782 C600.307382,418.603581 605.748426,424.044625 607.584225,431.011484 Z" id="Triangle" fill="#232323" transform="translate(588.2444, 737.1168) rotate(90) translate(-588.2444, -737.1168)"></path>
        <path d="M607.584225,37.0114842 L781.631438,697.520657 C784.445957,708.201755 778.068834,719.142114 767.387736,721.956633 C765.724478,722.394909 764.011631,722.616794 762.291599,722.616794 L414.197173,722.616794 C403.151478,722.616794 394.197173,713.662489 394.197173,702.616794 C394.197173,700.896761 394.419058,699.183914 394.857334,697.520657 L568.904547,37.0114842 C571.719065,26.3303859 582.659424,19.953263 593.340523,22.7677817 C600.307382,24.6035813 605.748426,30.0446247 607.584225,37.0114842 Z" id="Triangle" fill="#232323" transform="translate(588.2444, 343.1168) rotate(90) translate(-588.2444, -343.1168)"></path>
        <rect id="Rectangle" fill="#FFFFFF" x="50" y="537" width="1087" height="162"></rect>
        <rect id="Rectangle" fill="#FFFFFF" x="45" y="375" width="1087" height="162"></rect>
        <path d="M495.683167,374.348132 L571.598473,780.49502 C573.627941,791.352673 566.471283,801.799749 555.613629,803.829217 C554.401848,804.055719 553.17172,804.169697 551.938953,804.169697 L400.10834,804.169697 C389.062645,804.169697 380.10834,795.215392 380.10834,784.169697 C380.10834,782.936929 380.222318,781.706801 380.44882,780.49502 L456.364126,374.348132 C458.393594,363.490479 468.84067,356.33382 479.698323,358.363288 C487.815686,359.880552 494.165903,366.23077 495.683167,374.348132 Z" id="Triangle" fill="#232323" transform="translate(476.0236, 536.6697) rotate(90) translate(-476.0236, -536.6697)"></path>
    </g>
</svg>